REM DIRINDEX 1\2\4\8,1\2\4\9,1\2\4\10,1\2\5\11,1\2\5\12,1\2\5\13,1\2\5\14,1\2\5\15,1\3\6\16,1\3\6\17,1\3\6\18,1\3\7\19,1\3\7\20,1\3\7\21,1\3\7\22,1\3\7\23
REM DIRNAME "folder01","folder02","folder03","folder04","folder05","folder06","folder07","folder08","folder09","folder10","folder11","folder12","folder13","folder14","folder15","folder16","folder17","folder18","folder19","folder20","folder21","folder22","folder23"
TITLE ""
FILE "LR_black_phrase_E_C06.mp3" MP3
  TRACK 01 AUDIO
    TITLE "0:"
    INDEX 01 00:00:00
  TRACK 02 AUDIO
    TITLE "16:cjc171_10101"
    INDEX 01 00:00:14
  TRACK 03 AUDIO
    TITLE "0:"
    INDEX 01 00:01:25
  TRACK 04 AUDIO
    TITLE "17:cjc171_10102"
    INDEX 01 00:01:53
  TRACK 05 AUDIO
    TITLE "0:"
    INDEX 01 00:04:06
  TRACK 06 AUDIO
    TITLE "18:cjc171_10103"
    INDEX 01 00:04:63
  TRACK 07 AUDIO
    TITLE "0:"
    INDEX 01 00:07:16
  TRACK 08 AUDIO
    TITLE "16:cjc171_10104"
    INDEX 01 00:08:22
  TRACK 09 AUDIO
    TITLE "0:"
    INDEX 01 00:09:37
  TRACK 10 AUDIO
    TITLE "17:cjc171_10105"
    INDEX 01 00:09:66
  TRACK 11 AUDIO
    TITLE "0:"
    INDEX 01 00:12:43
  TRACK 12 AUDIO
    TITLE "18:cjc171_10106"
    INDEX 01 00:13:23
  TRACK 13 AUDIO
    TITLE "0:"
    INDEX 01 00:15:73
  TRACK 14 AUDIO
    TITLE "16:cjc171_10107"
    INDEX 01 00:16:72
  TRACK 15 AUDIO
    TITLE "0:"
    INDEX 01 00:18:04
  TRACK 16 AUDIO
    TITLE "17:cjc171_10108"
    INDEX 01 00:18:22
  TRACK 17 AUDIO
    TITLE "0:"
    INDEX 01 00:20:09
  TRACK 18 AUDIO
    TITLE "18:cjc171_10109"
    INDEX 01 00:20:54
  TRACK 19 AUDIO
    TITLE "0:"
    INDEX 01 00:22:41
  TRACK 20 AUDIO
    TITLE "16:cjc171_10110"
    INDEX 01 00:23:37
  TRACK 21 AUDIO
    TITLE "0:"
    INDEX 01 00:24:52
  TRACK 22 AUDIO
    TITLE "17:cjc171_10111"
    INDEX 01 00:24:70
  TRACK 23 AUDIO
    TITLE "0:"
    INDEX 01 00:27:50
  TRACK 24 AUDIO
    TITLE "18:cjc171_10112"
    INDEX 01 00:28:20
  TRACK 25 AUDIO
    TITLE "0:"
    INDEX 01 00:31:01
  TRACK 26 AUDIO
    TITLE "16:cjc171_10113"
    INDEX 01 00:32:01
  TRACK 27 AUDIO
    TITLE "0:"
    INDEX 01 00:33:25
  TRACK 28 AUDIO
    TITLE "17:cjc171_10114"
    INDEX 01 00:33:55
  TRACK 29 AUDIO
    TITLE "0:"
    INDEX 01 00:36:26
  TRACK 30 AUDIO
    TITLE "18:cjc171_10115"
    INDEX 01 00:37:06
  TRACK 31 AUDIO
    TITLE "0:"
    INDEX 01 00:39:51
  TRACK 32 AUDIO
    TITLE "16:cjc171_10116"
    INDEX 01 00:40:55
  TRACK 33 AUDIO
    TITLE "0:"
    INDEX 01 00:41:72
  TRACK 34 AUDIO
    TITLE "17:cjc171_10117"
    INDEX 01 00:42:26
  TRACK 35 AUDIO
    TITLE "0:"
    INDEX 01 00:44:25
  TRACK 36 AUDIO
    TITLE "18:cjc171_10118"
    INDEX 01 00:45:01
  TRACK 37 AUDIO
    TITLE "0:"
    INDEX 01 00:47:00
  TRACK 38 AUDIO
    TITLE "16:cjc171_10119"
    INDEX 01 00:48:00
  TRACK 39 AUDIO
    TITLE "0:"
    INDEX 01 00:49:05
  TRACK 40 AUDIO
    TITLE "17:cjc171_10120"
    INDEX 01 00:49:24
  TRACK 41 AUDIO
    TITLE "0:"
    INDEX 01 00:51:72
  TRACK 42 AUDIO
    TITLE "18:cjc171_10121"
    INDEX 01 00:52:42
  TRACK 43 AUDIO
    TITLE "0:"
    INDEX 01 00:55:13
  TRACK 44 AUDIO
    TITLE "16:cjc171_10122"
    INDEX 01 00:56:11
  TRACK 45 AUDIO
    TITLE "0:"
    INDEX 01 00:57:36
  TRACK 46 AUDIO
    TITLE "17:cjc171_10123"
    INDEX 01 00:57:51
  TRACK 47 AUDIO
    TITLE "0:"
    INDEX 01 00:59:42
  TRACK 48 AUDIO
    TITLE "18:cjc171_10124"
    INDEX 01 01:00:12
  TRACK 49 AUDIO
    TITLE "0:"
    INDEX 01 01:02:02
  TRACK 50 AUDIO
    TITLE "16:cjc171_10125"
    INDEX 01 01:03:03
  TRACK 51 AUDIO
    TITLE "0:"
    INDEX 01 01:04:06
  TRACK 52 AUDIO
    TITLE "17:cjc171_10126"
    INDEX 01 01:04:34
  TRACK 53 AUDIO
    TITLE "0:"
    INDEX 01 01:07:11
  TRACK 54 AUDIO
    TITLE "18:cjc171_10127"
    INDEX 01 01:07:65
  TRACK 55 AUDIO
    TITLE "0:"
    INDEX 01 01:10:40
  TRACK 56 AUDIO
    TITLE "16:cjc171_10128"
    INDEX 01 01:11:46
  TRACK 57 AUDIO
    TITLE "0:"
    INDEX 01 01:12:45
  TRACK 58 AUDIO
    TITLE "17:cjc171_10129"
    INDEX 01 01:12:74
  TRACK 59 AUDIO
    TITLE "0:"
    INDEX 01 01:14:66
  TRACK 60 AUDIO
    TITLE "18:cjc171_10130"
    INDEX 01 01:15:47
  TRACK 61 AUDIO
    TITLE "0:"
    INDEX 01 01:17:38
  TRACK 62 AUDIO
    TITLE "16:cjc171_10131"
    INDEX 01 01:18:40
  TRACK 63 AUDIO
    TITLE "0:"
    INDEX 01 01:19:37
  TRACK 64 AUDIO
    TITLE "17:cjc171_10132"
    INDEX 01 01:19:61
  TRACK 65 AUDIO
    TITLE "0:"
    INDEX 01 01:21:42
  TRACK 66 AUDIO
    TITLE "18:cjc171_10133"
    INDEX 01 01:22:12
  TRACK 67 AUDIO
    TITLE "0:"
    INDEX 01 01:23:66
  TRACK 68 AUDIO
    TITLE "16:cjc171_10134"
    INDEX 01 01:24:62
  TRACK 69 AUDIO
    TITLE "0:"
    INDEX 01 01:25:65
  TRACK 70 AUDIO
    TITLE "17:cjc171_10135"
    INDEX 01 01:26:20
  TRACK 71 AUDIO
    TITLE "0:"
    INDEX 01 01:27:62
  TRACK 72 AUDIO
    TITLE "18:cjc171_10136"
    INDEX 01 01:28:40
  TRACK 73 AUDIO
    TITLE "0:"
    INDEX 01 01:30:08
  TRACK 74 AUDIO
    TITLE "16:cjc171_10137"
    INDEX 01 01:31:09
  TRACK 75 AUDIO
    TITLE "0:"
    INDEX 01 01:32:28
  TRACK 76 AUDIO
    TITLE "17:cjc171_10138"
    INDEX 01 01:32:58
  TRACK 77 AUDIO
    TITLE "0:"
    INDEX 01 01:35:11
  TRACK 78 AUDIO
    TITLE "18:cjc171_10139"
    INDEX 01 01:35:64
  TRACK 79 AUDIO
    TITLE "0:"
    INDEX 01 01:38:17
  TRACK 80 AUDIO
    TITLE "16:cjc171_10140"
    INDEX 01 01:39:22
  TRACK 81 AUDIO
    TITLE "0:"
    INDEX 01 01:40:39
  TRACK 82 AUDIO
    TITLE "17:cjc171_10141"
    INDEX 01 01:40:67
  TRACK 83 AUDIO
    TITLE "0:"
    INDEX 01 01:43:03
  TRACK 84 AUDIO
    TITLE "18:cjc171_10142"
    INDEX 01 01:43:57
  TRACK 85 AUDIO
    TITLE "0:"
    INDEX 01 01:45:68
  TRACK 86 AUDIO
    TITLE "16:cjc171_10143"
    INDEX 01 01:46:69
  TRACK 87 AUDIO
    TITLE "0:"
    INDEX 01 01:47:71
  TRACK 88 AUDIO
    TITLE "17:cjc171_10144"
    INDEX 01 01:48:13
  TRACK 89 AUDIO
    TITLE "0:"
    INDEX 01 01:50:18
  TRACK 90 AUDIO
    TITLE "18:cjc171_10145"
    INDEX 01 01:50:61
  TRACK 91 AUDIO
    TITLE "0:"
    INDEX 01 01:52:66
  TRACK 92 AUDIO
    TITLE "16:cjc171_10146"
    INDEX 01 01:53:60
  TRACK 93 AUDIO
    TITLE "0:"
    INDEX 01 01:54:69
  TRACK 94 AUDIO
    TITLE "17:cjc171_10147"
    INDEX 01 01:55:16
  TRACK 95 AUDIO
    TITLE "0:"
    INDEX 01 01:56:64
  TRACK 96 AUDIO
    TITLE "18:cjc171_10148"
    INDEX 01 01:57:36
  TRACK 97 AUDIO
    TITLE "0:"
    INDEX 01 01:59:09
  TRACK 98 AUDIO
    TITLE "16:cjc171_10149"
    INDEX 01 02:00:09
  TRACK 99 AUDIO
    TITLE "0:"
    INDEX 01 02:01:32
  TRACK 100 AUDIO
    TITLE "17:cjc171_10150"
    INDEX 01 02:01:63
  TRACK 101 AUDIO
    TITLE "0:"
    INDEX 01 02:04:09
  TRACK 102 AUDIO
    TITLE "18:cjc171_10151"
    INDEX 01 02:04:61
  TRACK 103 AUDIO
    TITLE "0:"
    INDEX 01 02:07:07
  TRACK 104 AUDIO
    TITLE "16:cjc171_10152"
    INDEX 01 02:08:12
  TRACK 105 AUDIO
    TITLE "0:"
    INDEX 01 02:09:37
  TRACK 106 AUDIO
    TITLE "17:cjc171_10153"
    INDEX 01 02:09:67
  TRACK 107 AUDIO
    TITLE "0:"
    INDEX 01 02:11:42
  TRACK 108 AUDIO
    TITLE "18:cjc171_10154"
    INDEX 01 02:12:22
  TRACK 109 AUDIO
    TITLE "0:"
    INDEX 01 02:13:72
  TRACK 110 AUDIO
    TITLE "16:cjc171_10155"
    INDEX 01 02:14:74
  TRACK 111 AUDIO
    TITLE "0:"
    INDEX 01 02:16:18
  TRACK 112 AUDIO
    TITLE "17:cjc171_10156"
    INDEX 01 02:16:37
  TRACK 113 AUDIO
    TITLE "0:"
    INDEX 01 02:18:42
  TRACK 114 AUDIO
    TITLE "18:cjc171_10157"
    INDEX 01 02:19:12
  TRACK 115 AUDIO
    TITLE "0:"
    INDEX 01 02:21:17
  TRACK 116 AUDIO
    TITLE "16:cjc171_10158"
    INDEX 01 02:22:12
  TRACK 117 AUDIO
    TITLE "0:"
    INDEX 01 02:23:29
  TRACK 118 AUDIO
    TITLE "17:cjc171_10159"
    INDEX 01 02:23:49
  TRACK 119 AUDIO
    TITLE "0:"
    INDEX 01 02:25:42
  TRACK 120 AUDIO
    TITLE "18:cjc171_10160"
    INDEX 01 02:26:12
  TRACK 121 AUDIO
    TITLE "0:"
    INDEX 01 02:28:05
